# xmcd CD database file
#
# Track frame offsets:
#	150
#	5215
#	15412
#	23412
#	30480
#	39240
#	44300
#	55717
#	67250
#	78325
#	84025
#	92852
#	97965
#	107525
#	121342
#
# Disc length: 1845 seconds
#
# Revision: 2
# Processed by: cddbd v1.5.2PL0 Copyright (c) Steve Scherf et al.
# Submitted via: CDex 1.51
#
DISCID=a307330f
DTITLE=地獄車 - 地獄突き
DYEAR=1999
DGENRE=ハードコア
TTITLE0=空手バカ☆一代
TTITLE1=MUSCLE FACTORY
TTITLE2=SMELL MY GAS
TTITLE3=SEARCH and DESTROY
TTITLE4=テレク LOVE
TTITLE5=FIVE ANIMAL KUNG-FU
TTITLE6=格斗バカ☆一代野郎
TTITLE7=姥桜
TTITLE8=A SCRIBBLE ON THE WALL
TTITLE9=それって…!?
TTITLE10=T.F.P.B.
TTITLE11=Shoot, Shooter, Shootest
TTITLE12=EVERY LOVELY THING
TTITLE13=エンコー少女A
TTITLE14=鉄拳制裁
EXTD=YEAR: 1999
EXTT0=
EXTT1=
EXTT2=
EXTT3=
EXTT4=
EXTT5=
EXTT6=
EXTT7=
EXTT8=
EXTT9=
EXTT10=
EXTT11=
EXTT12=
EXTT13=
EXTT14=
PLAYORDER=
